<?xml version="1.0" standalone="no"?><!DOCTYPE svg PUBLIC "-//W3C//DTD SVG 1.1//EN" "http://www.w3.org/Graphics/SVG/1.1/DTD/svg11.dtd"><svg t="1592126446957" class="icon" viewBox="0 0 1024 1024" version="1.1" xmlns="http://www.w3.org/2000/svg" p-id="1744" xmlns:xlink="http://www.w3.org/1999/xlink" width="128" height="128"><defs><style type="text/css"></style></defs><path d="M798.988404 35.064138 235.222154 35.064138c-58.452874 0-106.321302 53.38101-106.321302 118.820341l0 688.810823c0 65.300252 47.776311 118.787829 106.321302 118.787829l563.76625 0c58.452874 0 106.355621-53.348498 106.355621-118.787829L905.344025 153.88448C905.215783 88.584227 857.443085 35.064138 798.988404 35.064138L798.988404 35.064138zM278.354675 211.506493l477.410897 0 0 103.843169L278.354675 315.349662 278.354675 211.506493 278.354675 211.506493zM755.765572 781.357896 278.354675 781.357896l0-103.843169 477.410897 0L755.765572 781.357896 755.765572 781.357896zM757.029926 549.898097 279.649735 549.898097l0-106.866781 477.380192 0L757.029926 549.898097 757.029926 549.898097zM757.029926 549.898097" p-id="1745"></path></svg>