<?xml version="1.0" standalone="no"?><!DOCTYPE svg PUBLIC "-//W3C//DTD SVG 1.1//EN" "http://www.w3.org/Graphics/SVG/1.1/DTD/svg11.dtd"><svg t="1591336098022" class="icon" viewBox="0 0 1024 1024" version="1.1" xmlns="http://www.w3.org/2000/svg" p-id="24001" xmlns:xlink="http://www.w3.org/1999/xlink" width="64" height="64"><defs><style type="text/css"></style></defs><path d="M804.352 317.147429v73.069714c0 43.885714 29.257143 73.142857 73.142857 73.142857 43.812571 0 72.996571 29.184 72.996572 72.996571v219.282286c0 124.269714-95.012571 219.282286-219.209143 219.282286H292.717714c-124.196571 0-219.209143-95.085714-219.209143-219.282286V244.004571C73.508571 119.808 168.521143 24.868571 292.717714 24.868571H585.142857c124.269714 0 219.282286 95.012571 219.282286 219.209143v73.142857z m-438.491429 73.069714H555.885714c43.885714 0 73.069714-29.257143 73.069715-73.142857 0-43.812571-29.257143-73.069714-73.142858-73.069715H365.933714c-43.885714 0-73.142857 29.257143-73.142857 73.142858s29.257143 73.069714 73.142857 73.069714z m292.278858 219.282286H365.860571c-43.885714 0-73.142857 29.257143-73.142857 73.069714 0 43.885714 29.257143 73.069714 73.142857 73.069714h292.278858c43.885714 0 73.142857-29.257143 73.142857-73.142857 0-43.812571-29.257143-72.996571-73.142857-72.996571z" p-id="24002"></path></svg>