<?xml version="1.0" standalone="no"?><!DOCTYPE svg PUBLIC "-//W3C//DTD SVG 1.1//EN" "http://www.w3.org/Graphics/SVG/1.1/DTD/svg11.dtd"><svg t="1591336180544" class="icon" viewBox="0 0 1024 1024" version="1.1" xmlns="http://www.w3.org/2000/svg" p-id="26665" xmlns:xlink="http://www.w3.org/1999/xlink" width="64" height="64"><defs><style type="text/css"></style></defs><path d="M448 188.16V480A96 96 0 0 0 544 576h289.28a58.368 58.368 0 0 1 57.728 67.072A448.128 448.128 0 0 1 0 576a448.128 448.128 0 0 1 383.808-443.456 56.192 56.192 0 0 1 64.192 55.68zM577.472 4.224a512.256 512.256 0 0 1 442.688 444.8 56.128 56.128 0 0 1-55.68 63.04H576a64 64 0 0 1-64-64V61.76a58.112 58.112 0 0 1 65.472-57.6z" p-id="26666"></path></svg>