<?xml version="1.0" standalone="no"?><!DOCTYPE svg PUBLIC "-//W3C//DTD SVG 1.1//EN" "http://www.w3.org/Graphics/SVG/1.1/DTD/svg11.dtd"><svg t="1591335805199" class="icon" viewBox="0 0 1024 1024" version="1.1" xmlns="http://www.w3.org/2000/svg" p-id="12764" xmlns:xlink="http://www.w3.org/1999/xlink" width="64" height="64"><defs><style type="text/css"></style></defs><path d="M988.706 498.825L527.36 37.479c-8.465-8.465-22.255-8.465-30.72 0L34.406 499.713c-6.212 6.212-8.055 15.565-4.71 23.689s11.264 13.449 20.07 13.449h111.138v437.316c0 12.015 9.762 21.709 21.709 21.709h215.996c12.015 0 21.709-9.762 21.709-21.709V647.852h184.32v326.315c0 12.015 9.762 21.709 21.709 21.709h215.996c12.015 0 21.709-9.762 21.709-21.709V536.851h110.114c12.015 0 21.709-9.762 21.709-21.709a21.083 21.083 0 0 0-7.168-16.316z" p-id="12765"></path></svg>