<?xml version="1.0" standalone="no"?><!DOCTYPE svg PUBLIC "-//W3C//DTD SVG 1.1//EN" "http://www.w3.org/Graphics/SVG/1.1/DTD/svg11.dtd"><svg t="1591335782350" class="icon" viewBox="0 0 1024 1024" version="1.1" xmlns="http://www.w3.org/2000/svg" p-id="11289" width="64" height="64" xmlns:xlink="http://www.w3.org/1999/xlink"><defs><style type="text/css"></style></defs><path d="M760.807858 338.123499c149.922684 118.02424 216.909415 299.845367 165.871905 433.81883-47.847665 130.783618-210.529726 255.187547-328.553966 251.997702 9.569533-25.518755 22.32891-47.847665 31.898443-73.36642 25.518755-76.556264 22.32891-146.732839-41.467976-207.339881-60.607042-57.417198-102.075019-124.403929-89.315641-223.289104-92.505486 57.417198-162.682061 124.403929-178.631283 229.668792-15.949222 105.264863 38.278132 185.010971 92.505486 267.946924-127.593773-22.32891-236.048481-73.36642-296.655523-191.39066-54.227354-102.075019-51.037509-213.71957 25.518754-312.604744 41.467976-51.037509 92.505486-95.69533 140.353151-140.353151C397.165604 274.326613 480.101557 165.871905 435.443736 0c169.06175 15.949222 296.655523 213.71957 264.75708 417.869608 25.518755-28.708599 41.467976-54.227354 60.607042-79.746109z" p-id="11290"></path></svg>