<?xml version="1.0" standalone="no"?><!DOCTYPE svg PUBLIC "-//W3C//DTD SVG 1.1//EN" "http://www.w3.org/Graphics/SVG/1.1/DTD/svg11.dtd"><svg t="1591687887926" class="icon" viewBox="0 0 1024 1024" version="1.1" xmlns="http://www.w3.org/2000/svg" p-id="3173" xmlns:xlink="http://www.w3.org/1999/xlink" width="128" height="128"><defs><style type="text/css"></style></defs><path d="M1024 470.784a106.666667 106.666667 0 0 0-106.666667-106.666667h-269.269333a10.666667 10.666667 0 0 1-10.112-13.994666 370.517333 370.517333 0 0 0 22.186667-188.032c-25.088-89.386667-78.250667-115.2-119.850667-109.44A85.333333 85.333333 0 0 0 469.333333 140.117333c0 117.162667-90.837333 245.162667-172.117333 301.269334a21.333333 21.333333 0 0 0-9.216 17.578666v431.616a21.333333 21.333333 0 0 0 17.28 20.949334c15.232 2.944 29.056 5.76 42.112 8.533333a738.517333 738.517333 0 0 0 175.274667 20.096h277.333333c83.498667 0 96-46.933333 96-74.666667a95.573333 95.573333 0 0 0-9.898667-42.410666 95.914667 95.914667 0 0 0 42.666667-128A96.085333 96.085333 0 0 0 981.333333 609.450667a94.976 94.976 0 0 0-11.648-45.738667A106.666667 106.666667 0 0 0 1024 470.784zM224 460.117333a42.666667 42.666667 0 0 0-42.666667-42.666666H42.666667a42.666667 42.666667 0 0 0-42.666667 42.666666v469.333334a42.666667 42.666667 0 0 0 42.666667 42.666666h138.666666a42.666667 42.666667 0 0 0 42.666667-42.666666z m-64 394.666667a32 32 0 1 1-32-32 32 32 0 0 1 32 32z" p-id="3174"></path></svg>