<?xml version="1.0" standalone="no"?><!DOCTYPE svg PUBLIC "-//W3C//DTD SVG 1.1//EN" "http://www.w3.org/Graphics/SVG/1.1/DTD/svg11.dtd"><svg t="1591335930827" class="icon" viewBox="0 0 1024 1024" version="1.1" xmlns="http://www.w3.org/2000/svg" p-id="18408" xmlns:xlink="http://www.w3.org/1999/xlink" width="64" height="64"><defs><style type="text/css"></style></defs><path d="M387.8486016 66.38885799H139.0487021A82.85044939 82.85044939 0 0 0 56.32252839 149.1150317v248.7998995a82.85044939 82.85044939 0 0 0 82.72617371 82.72617371h248.7998995A82.85044939 82.85044939 0 0 0 470.57477531 397.9149312V149.1150317a82.85044939 82.85044939 0 0 0-82.72617371-82.72617371M994.97669467 214.98113897l-175.93292925-175.89150404a82.85044939 82.85044939 0 0 0-116.98483454 0L677.70089876 63.44766704 526.12600162 214.98113897a82.14622057 82.14622057 0 0 0-24.15090599 58.32671636 82.14622057 82.14622057 0 0 0 24.15090599 58.65811816l24.35803212 24.35803211L677.70089876 483.62372109l24.35803212 24.35803212a82.72617371 82.72617371 0 0 0 116.98483454-0.04142523l151.57489714-151.61632238 24.35803211-24.31660688a82.76759893 82.76759893 0 0 0 0-116.98483454M387.8486016 563.49155429H139.0487021A82.85044939 82.85044939 0 0 0 56.32252839 646.217728v248.7998995a82.85044939 82.85044939 0 0 0 82.72617371 82.72617371h248.7998995A82.85044939 82.85044939 0 0 0 470.57477531 895.0176275V646.217728a82.85044939 82.85044939 0 0 0-82.72617371-82.72617371M884.9512979 563.49155429h-248.7998995A82.85044939 82.85044939 0 0 0 553.42522469 646.217728v248.7998995a82.85044939 82.85044939 0 0 0 82.72617371 82.72617371h248.7998995A82.85044939 82.85044939 0 0 0 967.67747161 895.0176275V646.217728a82.85044939 82.85044939 0 0 0-82.72617371-82.72617371" p-id="18409"></path></svg>