<?xml version="1.0" standalone="no"?><!DOCTYPE svg PUBLIC "-//W3C//DTD SVG 1.1//EN" "http://www.w3.org/Graphics/SVG/1.1/DTD/svg11.dtd"><svg t="1592141805210" class="icon" viewBox="0 0 1024 1024" version="1.1" xmlns="http://www.w3.org/2000/svg" p-id="5363" xmlns:xlink="http://www.w3.org/1999/xlink" width="128" height="128"><defs><style type="text/css"></style></defs><path d="M851.4 63.9H168.6c-25.6 0-42.7 17.1-42.7 42.7v810.9c0 8.5 4.3 17.1 8.5 25.6 12.8 17.1 42.7 21.3 59.8 8.5l264.6-196.3c29.9-21.3 72.6-21.3 102.4 0l264.6 196.3c8.5 8.5 17.1 8.5 25.6 8.5 25.6 0 42.7-17.1 42.7-42.7V106.5c0-25.6-17.1-42.6-42.7-42.6z m-128 426.8H296.6c-25.6 0-42.7-17.1-42.7-42.7s17.1-42.7 42.7-42.7h426.8c25.6 0 42.7 17.1 42.7 42.7s-17.1 42.7-42.7 42.7z m0-170.8H296.6c-25.6 0-42.7-17.1-42.7-42.7s17.1-42.7 42.7-42.7h426.8c25.6 0 42.7 17.1 42.7 42.7s-17.1 42.7-42.7 42.7z" p-id="5364"></path></svg>