<?xml version="1.0" standalone="no"?><!DOCTYPE svg PUBLIC "-//W3C//DTD SVG 1.1//EN" "http://www.w3.org/Graphics/SVG/1.1/DTD/svg11.dtd"><svg t="1591336119426" class="icon" viewBox="0 0 1024 1024" version="1.1" xmlns="http://www.w3.org/2000/svg" p-id="25340" xmlns:xlink="http://www.w3.org/1999/xlink" width="64" height="64"><defs><style type="text/css"></style></defs><path d="M511.6 89.4c-24 0-45.9 13.7-56.1 35.2l-97.1 204.7L135 363c-23 3.4-42 19.4-49.4 41.1-7.4 21.8-1.8 45.8 14.4 62.2l163.7 166-38 230.2c-3.9 23.2 6 46.4 25.4 60.1 10.7 7.4 23.2 11.2 35.7 11.2 10.3 0 20.6-2.5 30-7.6l194.7-106.5 194.8 106.5c9.3 5.1 19.7 7.6 29.9 7.6 12.6 0 25.1-3.8 35.7-11.2 19.4-13.6 29.3-36.8 25.4-60.1l-38-230.2 163.7-166c16.2-16.4 21.8-40.4 14.4-62.2-7.4-21.7-26.5-37.7-49.5-41.1l-223.3-33.7-97.1-204.7c-10-21.5-31.9-35.2-55.9-35.2z m0 0" p-id="25341"></path></svg>