<?xml version="1.0" standalone="no"?><!DOCTYPE svg PUBLIC "-//W3C//DTD SVG 1.1//EN" "http://www.w3.org/Graphics/SVG/1.1/DTD/svg11.dtd"><svg t="1591336323562" class="icon" viewBox="0 0 1024 1024" version="1.1" xmlns="http://www.w3.org/2000/svg" p-id="28607" xmlns:xlink="http://www.w3.org/1999/xlink" width="64" height="64"><defs><style type="text/css"></style></defs><path d="M989.824427 495.872l-408.746667-415.701333C537.68576 36.053333 452.395093 0.298667 390.528427 0.256L74.240427 0C33.87776 0 1.024427 32.64 0.896427 73.002667L0.000427 381.696c-0.170667 61.781333 35.114667 147.328 78.805333 191.061333l416.597333 416.938667a111.957333 111.957333 0 0 0 158.293334 0.085333l335.36-334.976a113.024 113.024 0 0 0 0.768-158.933333z m-668.16-174.08c-40.192 40.106667-105.301333 40.106667-145.493334 0a102.656 102.656 0 0 1 0-145.28 102.954667 102.954667 0 0 1 145.493334 0c40.149333 40.106667 40.149333 105.173333 0 145.28z" p-id="28608"></path></svg>