<?xml version="1.0" standalone="no"?><!DOCTYPE svg PUBLIC "-//W3C//DTD SVG 1.1//EN" "http://www.w3.org/Graphics/SVG/1.1/DTD/svg11.dtd"><svg t="1591336043843" class="icon" viewBox="0 0 1024 1024" version="1.1" xmlns="http://www.w3.org/2000/svg" p-id="22090" xmlns:xlink="http://www.w3.org/1999/xlink" width="64" height="64"><defs><style type="text/css"></style></defs><path d="M160 128h704c53.02 0 96 42.98 96 96v576c0 53.02-42.98 96-96 96H160c-53.02 0-96-42.98-96-96V224c0-53.02 42.98-96 96-96z m464 438.652v64h224v-64h-224z m-64-192.044v64h288v-64h-288z m-158.448 165.384H313.092c-75.72 0-137.092 62.9-137.092 140.52v9.052c0 31.704 61.372 31.752 137.092 31.752h88.46c75.704 0 137.092-1.164 137.092-31.752v-9.052c0-77.62-61.376-140.52-137.092-140.52z m58.952-141.04c0-58.404-46.196-105.76-103.184-105.76-56.972 0-103.18 47.34-103.18 105.76s46.196 105.78 103.18 105.78c56.988 0 103.184-47.36 103.184-105.776z" p-id="22091"></path></svg>