<?xml version="1.0" standalone="no"?><!DOCTYPE svg PUBLIC "-//W3C//DTD SVG 1.1//EN" "http://www.w3.org/Graphics/SVG/1.1/DTD/svg11.dtd"><svg t="1591335970980" class="icon" viewBox="0 0 1024 1024" version="1.1" xmlns="http://www.w3.org/2000/svg" p-id="19570" xmlns:xlink="http://www.w3.org/1999/xlink" width="64" height="64"><defs><style type="text/css"></style></defs><path d="M974.191059 0.03715H762.823947a49.733791 49.733791 0 1 0 0 99.393582h161.706321v162.364319a49.733791 49.733791 0 0 0 99.393582 0V49.696941c0-27.352885-22.269906-49.659791-49.732791-49.659791m0 723.98596c-27.426885 0-49.659791 22.233907-49.659791 49.732791v150.809367H762.786947a49.733791 49.733791 0 1 0 0 99.393582h211.439112c27.426885 0 49.696791-22.269906 49.696791-49.733791V773.719901c0-27.426885-22.269906-49.733791-49.732791-49.733791M49.734941 304.031873c27.426885 0 49.660791-22.233907 49.660792-49.696791V99.430732h151.467364a49.733791 49.733791 0 0 0 0-99.393582H49.735941C22.309056 0.03715 0.00215 22.307056 0.00215 49.769941V254.299082c0 27.425885 22.269906 49.732791 49.733791 49.732791m193.630187 620.533395H99.395733V773.719901a49.733791 49.733791 0 0 0-99.393583 0v200.542158c0 27.389885 22.269906 49.696791 49.733791 49.696791h193.630187a49.733791 49.733791 0 0 0 0-99.393582m562.13364-163.827313v-21.648909c0-18.94292-10.385956-38.359839-31.15687-58.216755a317.050669 317.050669 0 0 0-74.453687-52.110781 663.063216 663.063216 0 0 0-94.090605-39.274835 22.672905 22.672905 0 0 1-4.75398-2.37699 33.24086 33.24086 0 0 1-6.801971-6.435973 30.86387 30.86387 0 0 1-6.069975-11.519952 61.80074 61.80074 0 0 1-1.682993-18.575922c0.219999-7.898967 1.901992-16.60193 5.046979-26.073891 22.599905-23.476901 41.212827-52.32978 55.839766-86.667636a261.831901 261.831901 0 0 0 22.014907-103.525565c0-53.243776-15.212936-94.676602-45.710808-124.223478-30.424872-29.510876-68.199714-44.321814-113.362524-44.321814-45.089811 0-82.901652 14.773938-113.363524 44.321814-30.424872 29.619876-45.673808 70.979702-45.673808 124.223478 0 35.215852 7.313969 69.955706 22.013907 104.220563 14.663938 34.337856 33.27786 63.190735 55.839766 86.667636 3.620985 11.738951 5.412977 21.31991 5.412977 28.779879 0 7.422969-2.010992 13.859942-6.069974 19.271919-4.059983 5.447977-7.679968 9.287961-10.824955 11.518951-3.180987 2.229991-5.849975 3.802984-8.117966 4.75398-32.509863 11.701951-62.751736 25.049895-90.726619 39.932833a319.756657 319.756657 0 0 0-72.771694 52.109781c-20.478914 19.856917-30.790871 39.019836-30.790871 57.522758v21.684909c0 18.94292 8.446965 35.105853 25.378894 48.379797 16.930929 13.311944 40.261831 23.331902 70.065705 30.133874 29.766875 6.764972 60.776745 11.627951 93.06661 14.553939 32.289864 2.924988 68.017714 4.387982 107.292549 4.387981 196.300176 0 294.450764-32.472864 294.450764-97.455591" p-id="19571"></path></svg>