<?xml version="1.0" standalone="no"?><!DOCTYPE svg PUBLIC "-//W3C//DTD SVG 1.1//EN" "http://www.w3.org/Graphics/SVG/1.1/DTD/svg11.dtd"><svg t="1591420322499" class="icon" viewBox="0 0 1024 1024" version="1.1" xmlns="http://www.w3.org/2000/svg" p-id="4044" xmlns:xlink="http://www.w3.org/1999/xlink" width="64" height="64"><defs><style type="text/css"></style></defs><path d="M176.384 64c126.784 16.128 259.84 34.176 343.936 145.408 137.6-67.392 284.608-60.928 427.968-12.032 4.096 253.44 7.68 506.432 11.712 759.872-194.24-66.496-274.688-61.44-462.592 2.752-130.368-110.336-280.96-50.752-424.896-6.016L64 180.8c0-18.496 54.848-24 54.848 3.712l8.512 612.48c0.448 19.008 55.296 15.296 54.848-4.992L176.448 64zM563.2 429.696c-16.128 10.048-28.416 37.12 1.92 42.368 7.04 1.344 12.736-1.728 26.88-6.976 35.52-13.12 61.056-15.296 99.84-13.504 31.744 1.728 91.328 30.592 115.456 25.344 19.392-3.968 18.496-22.784 5.248-31.04-35.52-22.336-85.632-33.664-130.112-36.736-34.56-2.176-88.512 1.728-119.232 20.544z m3.456-135.616c-19.456 10.368-34.56 38.912 2.944 43.712 9.28 1.088 16.064-2.24 33.6-7.424 43.84-14.4 76.48-17.024 124.736-15.552 39.424 1.152 115.456 30.016 145.152 24.064 23.872-4.48 22.4-23.68 5.376-32.192-44.8-22.208-108.16-33.28-163.712-35.584-42.368-1.792-110.08 3.008-148.096 23.04z" p-id="4045"></path></svg>