<?xml version="1.0" standalone="no"?><!DOCTYPE svg PUBLIC "-//W3C//DTD SVG 1.1//EN" "http://www.w3.org/Graphics/SVG/1.1/DTD/svg11.dtd"><svg t="1592139064640" class="icon" viewBox="0 0 1024 1024" version="1.1" xmlns="http://www.w3.org/2000/svg" p-id="3005" xmlns:xlink="http://www.w3.org/1999/xlink" width="128" height="128"><defs><style type="text/css"></style></defs><path d="M35.2 908.271v-68.199h51.38C282.189 582.46 489.933 336.904 791.578 183.586c-87.04 7.68-237.082 92.16-362.65 202.24a3311.18 3311.18 0 0 0-290.842 297.83 298.496 298.496 0 0 1 2.919-222.336 539.955 539.955 0 0 1 159.232-212.787c35.379-29.594 84.864-52.634 78.643-13.107a628.07 628.07 0 0 1 237.286-121.473c27.341-7.143 99.15-27.57 80.308 18.97a341.402 341.402 0 0 1 204.032-40.09 142.003 142.003 0 0 1 50.534 11.392c43.52 18.355 51.456 44.006 21.427 80.998a926.336 926.336 0 0 1-71.245 71.194c46.592-8.935 30.848 36.761 17.05 60.672-51.2 88.678-131.891 144.82-218.931 193.715-11.162 6.298-23.04 11.162-40.013 19.174 47.846-1.51 29.875 36.813 11.392 59.316a465.92 465.92 0 0 1-284.8 163.481 1038.925 1038.925 0 0 1-162.714 15.36c-27.955 0.743-29.9-1.97-62.387 30.234a452.685 452.685 0 0 0-35.84 41.651h660.915v68.198z" p-id="3006"></path></svg>